<svg width="43" height="42" viewBox="0 0 43 42" fill="none" xmlns="http://www.w3.org/2000/svg">
    <path d="M6.62216 9.74773H6.6243M6.6243 9.74773H40.0833C40.2195 9.74736 40.3541 9.77759 40.4772 9.83622C40.6003 9.89485 40.7088 9.9804 40.7948 10.0866C40.8808 10.1928 40.9421 10.3169 40.9742 10.45C41.0064 10.5831 41.0085 10.7217 40.9804 10.8557L37.7079 26.5659C37.6663 26.7657 37.5598 26.9459 37.4051 27.0781C37.2503 27.2103 37.0562 27.2869 36.8534 27.296H11.0569M6.6243 9.74773L10.9885 27.296H11.0569M6.6243 9.74773L5.00719 3.24543C4.91785 2.88969 4.71302 2.57411 4.42517 2.34853C4.13731 2.12295 3.78288 2.0003 3.41789 2H0M11.0569 27.296V31.3674C11.0558 31.6914 11.1184 32.0126 11.2412 32.3122C11.3641 32.6118 11.5447 32.8839 11.7726 33.1131C12.0006 33.3422 12.2714 33.5238 12.5694 33.6473C12.8675 33.7708 13.1869 33.8337 13.5092 33.8326H38.0582" stroke="#F4B5A4" stroke-width="2.5" stroke-miterlimit="10"/>
    <path d="M12.4894 42C13.976 42 15.181 40.7886 15.181 39.2943C15.181 37.8 13.976 36.5886 12.4894 36.5886C11.0029 36.5886 9.79785 37.8 9.79785 39.2943C9.79785 40.7886 11.0029 42 12.4894 42Z" fill="#F4B5A4"/>
    <path d="M31.7749 42C33.2614 42 34.4665 40.7886 34.4665 39.2943C34.4665 37.8 33.2614 36.5886 31.7749 36.5886C30.2883 36.5886 29.0833 37.8 29.0833 39.2943C29.0833 40.7886 30.2883 42 31.7749 42Z" fill="#F4B5A4"/>
</svg>
