<svg width="52" height="39" viewBox="0 0 52 39" fill="none" xmlns="http://www.w3.org/2000/svg">
    <path d="M12.9345 29.8247V37H39.196V29.337M39.1959 13.5068V8.15845C39.1959 6.52511 38.5368 4.95868 37.3634 3.80374C36.1901 2.6488 34.5986 2 32.9393 2H7.37482C5.9499 2.00654 4.58537 2.56711 3.57857 3.55964C2.57178 4.55218 2.00442 5.89615 2 7.29871V12.3578H9.13014M12.9346 30.5192V7.29871C12.9302 5.89472 12.3615 4.54949 11.3529 3.55672C10.3443 2.56395 8.97763 2.00436 7.55125 2M18.1247 10.2416H25.5404M18.1247 17.607H28.4798M18.1247 26.2619H33.3424M45.8474 12.7959C44.7461 12.3767 43.5499 12.2591 42.3861 12.4556C41.2223 12.6521 40.1344 13.1553 39.238 13.9118C38.3416 13.1553 37.2536 12.6521 36.0898 12.4556C34.926 12.2591 33.7299 12.3767 32.6286 12.7959C31.8293 13.1012 31.099 13.5586 30.4795 14.1419C29.8599 14.7251 29.3632 15.4228 29.0177 16.1951C28.6722 16.9673 28.4847 17.7991 28.4659 18.6428C28.4471 19.4864 28.5973 20.3255 28.9081 21.1119C30.1846 24.3524 39.2296 29.5767 39.2296 29.5767C39.5991 29.3701 48.2746 24.3606 49.5511 21.1202C49.8636 20.3343 50.0157 19.4955 49.9987 18.6517C49.9817 17.8079 49.7958 16.9756 49.4519 16.2025C49.1079 15.4294 48.6125 14.7306 47.9941 14.1461C47.3756 13.5616 46.6462 13.1028 45.8474 12.7959Z" stroke="#F4B5A4" stroke-width="2.5" stroke-miterlimit="10"/>
</svg>
